<mxfile host="app.diagrams.net" modified="2024-05-12T10:29:57.820Z" agent="Mozilla/5.0 (Windows NT 10.0; Win64; x64) AppleWebKit/537.36 (KHTML, like Gecko) Chrome/124.0.0.0 Safari/537.36 Edg/124.0.0.0" etag="L-P8p8Oifpnq4HMvEgb0" version="24.3.1" type="device">
  <diagram name="Page-1" id="FwhXQuWWDJFP0YxhYyxo">
    <mxGraphModel dx="1766" dy="1176" grid="1" gridSize="10" guides="1" tooltips="1" connect="1" arrows="1" fold="1" page="0" pageScale="1" pageWidth="827" pageHeight="1169" math="0" shadow="0">
      <root>
        <mxCell id="0" />
        <mxCell id="1" parent="0" />
        <mxCell id="qZCclD8dBdFTlwSklnAS-3" style="edgeStyle=orthogonalEdgeStyle;rounded=0;orthogonalLoop=1;jettySize=auto;html=1;" parent="1" source="qZCclD8dBdFTlwSklnAS-1" target="qZCclD8dBdFTlwSklnAS-2" edge="1">
          <mxGeometry relative="1" as="geometry">
            <Array as="points">
              <mxPoint x="175" y="110" />
              <mxPoint x="414" y="110" />
            </Array>
          </mxGeometry>
        </mxCell>
        <mxCell id="hn2Jx-FOd4afHSMYTRQ_-12" style="edgeStyle=orthogonalEdgeStyle;rounded=0;orthogonalLoop=1;jettySize=auto;html=1;" edge="1" parent="1" source="qZCclD8dBdFTlwSklnAS-1" target="qZCclD8dBdFTlwSklnAS-4">
          <mxGeometry relative="1" as="geometry" />
        </mxCell>
        <mxCell id="qZCclD8dBdFTlwSklnAS-1" value="Audio input" style="rounded=1;whiteSpace=wrap;html=1;" parent="1" vertex="1">
          <mxGeometry x="120" y="160" width="110" height="60" as="geometry" />
        </mxCell>
        <mxCell id="qZCclD8dBdFTlwSklnAS-7" style="edgeStyle=orthogonalEdgeStyle;rounded=0;orthogonalLoop=1;jettySize=auto;html=1;entryX=0;entryY=0.5;entryDx=0;entryDy=0;" parent="1" source="qZCclD8dBdFTlwSklnAS-2" target="qZCclD8dBdFTlwSklnAS-65" edge="1">
          <mxGeometry relative="1" as="geometry">
            <mxPoint x="540" y="60" as="targetPoint" />
          </mxGeometry>
        </mxCell>
        <mxCell id="qZCclD8dBdFTlwSklnAS-2" value="Modello Tokenizzatore Semantico Hu&lt;span style=&quot;background-color: initial;&quot;&gt;Bert&lt;/span&gt;" style="shape=cube;whiteSpace=wrap;html=1;boundedLbl=1;backgroundOutline=1;darkOpacity=0.05;darkOpacity2=0.1;" parent="1" vertex="1">
          <mxGeometry x="354" y="70" width="120" height="80" as="geometry" />
        </mxCell>
        <mxCell id="qZCclD8dBdFTlwSklnAS-12" style="edgeStyle=orthogonalEdgeStyle;rounded=0;orthogonalLoop=1;jettySize=auto;html=1;" parent="1" source="qZCclD8dBdFTlwSklnAS-4" target="hn2Jx-FOd4afHSMYTRQ_-2" edge="1">
          <mxGeometry relative="1" as="geometry">
            <mxPoint x="540" y="270" as="targetPoint" />
          </mxGeometry>
        </mxCell>
        <mxCell id="qZCclD8dBdFTlwSklnAS-4" value="Modello Tokenizzatore Acustico Soundstream" style="shape=cube;whiteSpace=wrap;html=1;boundedLbl=1;backgroundOutline=1;darkOpacity=0.05;darkOpacity2=0.1;fillColor=#f8cecc;strokeColor=#b85450;" parent="1" vertex="1">
          <mxGeometry x="360" y="210" width="120" height="100" as="geometry" />
        </mxCell>
        <mxCell id="hn2Jx-FOd4afHSMYTRQ_-6" style="edgeStyle=orthogonalEdgeStyle;rounded=0;orthogonalLoop=1;jettySize=auto;html=1;" edge="1" parent="1" source="qZCclD8dBdFTlwSklnAS-14" target="hn2Jx-FOd4afHSMYTRQ_-5">
          <mxGeometry relative="1" as="geometry" />
        </mxCell>
        <mxCell id="hn2Jx-FOd4afHSMYTRQ_-8" style="edgeStyle=orthogonalEdgeStyle;rounded=0;orthogonalLoop=1;jettySize=auto;html=1;" edge="1" parent="1" source="qZCclD8dBdFTlwSklnAS-14" target="qZCclD8dBdFTlwSklnAS-79">
          <mxGeometry relative="1" as="geometry" />
        </mxCell>
        <mxCell id="qZCclD8dBdFTlwSklnAS-14" value="Transforrmer fase&lt;span style=&quot;background-color: initial;&quot;&gt;&amp;nbsp;2&lt;/span&gt;&lt;div&gt;&lt;div&gt;&lt;br&gt;&lt;/div&gt;&lt;/div&gt;" style="rounded=1;whiteSpace=wrap;html=1;" parent="1" vertex="1">
          <mxGeometry x="750" y="240" width="90" height="60" as="geometry" />
        </mxCell>
        <mxCell id="qZCclD8dBdFTlwSklnAS-61" value="&lt;b&gt;&lt;font style=&quot;font-size: 18px;&quot;&gt;Semantic Modeling&lt;/font&gt;&lt;/b&gt;" style="text;html=1;align=center;verticalAlign=middle;whiteSpace=wrap;rounded=0;" parent="1" vertex="1">
          <mxGeometry x="710" y="-370" width="180" height="30" as="geometry" />
        </mxCell>
        <mxCell id="qZCclD8dBdFTlwSklnAS-29" value="" style="shape=table;startSize=0;container=1;collapsible=0;childLayout=tableLayout;fontSize=16;" parent="1" vertex="1">
          <mxGeometry x="440" y="670" width="310" height="130.00000000000023" as="geometry" />
        </mxCell>
        <mxCell id="qZCclD8dBdFTlwSklnAS-30" value="" style="shape=tableRow;horizontal=0;startSize=0;swimlaneHead=0;swimlaneBody=0;strokeColor=inherit;top=0;left=0;bottom=0;right=0;collapsible=0;dropTarget=0;fillColor=none;points=[[0,0.5],[1,0.5]];portConstraint=eastwest;fontSize=16;" parent="qZCclD8dBdFTlwSklnAS-29" vertex="1">
          <mxGeometry width="310" height="130" as="geometry" />
        </mxCell>
        <mxCell id="qZCclD8dBdFTlwSklnAS-31" value="Da addestrare" style="shape=partialRectangle;html=1;whiteSpace=wrap;connectable=0;strokeColor=#b85450;overflow=hidden;fillColor=#f8cecc;top=0;left=0;bottom=0;right=0;pointerEvents=1;fontSize=16;" parent="qZCclD8dBdFTlwSklnAS-30" vertex="1">
          <mxGeometry width="104" height="130" as="geometry">
            <mxRectangle width="104" height="130" as="alternateBounds" />
          </mxGeometry>
        </mxCell>
        <mxCell id="qZCclD8dBdFTlwSklnAS-32" value="Fine tuning" style="shape=partialRectangle;html=1;whiteSpace=wrap;connectable=0;strokeColor=#82b366;overflow=hidden;fillColor=#d5e8d4;top=0;left=0;bottom=0;right=0;pointerEvents=1;fontSize=16;" parent="qZCclD8dBdFTlwSklnAS-30" vertex="1">
          <mxGeometry x="104" width="112" height="130" as="geometry">
            <mxRectangle width="112" height="130" as="alternateBounds" />
          </mxGeometry>
        </mxCell>
        <mxCell id="qZCclD8dBdFTlwSklnAS-33" value="" style="shape=partialRectangle;html=1;whiteSpace=wrap;connectable=0;strokeColor=inherit;overflow=hidden;fillColor=none;top=0;left=0;bottom=0;right=0;pointerEvents=1;fontSize=16;" parent="qZCclD8dBdFTlwSklnAS-30" vertex="1">
          <mxGeometry x="216" width="94" height="130" as="geometry">
            <mxRectangle width="94" height="130" as="alternateBounds" />
          </mxGeometry>
        </mxCell>
        <mxCell id="hn2Jx-FOd4afHSMYTRQ_-4" style="edgeStyle=orthogonalEdgeStyle;rounded=0;orthogonalLoop=1;jettySize=auto;html=1;entryX=0.5;entryY=0;entryDx=0;entryDy=0;" edge="1" parent="1" source="qZCclD8dBdFTlwSklnAS-65" target="hn2Jx-FOd4afHSMYTRQ_-2">
          <mxGeometry relative="1" as="geometry" />
        </mxCell>
        <mxCell id="qZCclD8dBdFTlwSklnAS-65" value="Transforrmer fase 1" style="rounded=1;whiteSpace=wrap;html=1;" parent="1" vertex="1">
          <mxGeometry x="535" y="80" width="120" height="60" as="geometry" />
        </mxCell>
        <mxCell id="qZCclD8dBdFTlwSklnAS-79" value="Decoder sound stream" style="rounded=1;whiteSpace=wrap;html=1;" parent="1" vertex="1">
          <mxGeometry x="1030" y="240" width="120" height="60" as="geometry" />
        </mxCell>
        <mxCell id="hn2Jx-FOd4afHSMYTRQ_-3" style="edgeStyle=orthogonalEdgeStyle;rounded=0;orthogonalLoop=1;jettySize=auto;html=1;" edge="1" parent="1" source="hn2Jx-FOd4afHSMYTRQ_-2" target="qZCclD8dBdFTlwSklnAS-14">
          <mxGeometry relative="1" as="geometry" />
        </mxCell>
        <mxCell id="hn2Jx-FOd4afHSMYTRQ_-2" value="cat" style="ellipse;whiteSpace=wrap;html=1;aspect=fixed;" vertex="1" parent="1">
          <mxGeometry x="555" y="230" width="80" height="80" as="geometry" />
        </mxCell>
        <mxCell id="hn2Jx-FOd4afHSMYTRQ_-7" style="edgeStyle=orthogonalEdgeStyle;rounded=0;orthogonalLoop=1;jettySize=auto;html=1;" edge="1" parent="1" source="hn2Jx-FOd4afHSMYTRQ_-5" target="qZCclD8dBdFTlwSklnAS-79">
          <mxGeometry relative="1" as="geometry">
            <Array as="points">
              <mxPoint x="1090" y="370" />
            </Array>
          </mxGeometry>
        </mxCell>
        <mxCell id="hn2Jx-FOd4afHSMYTRQ_-5" value="Transfrormer fase 3" style="rounded=1;whiteSpace=wrap;html=1;" vertex="1" parent="1">
          <mxGeometry x="860" y="330" width="120" height="60" as="geometry" />
        </mxCell>
      </root>
    </mxGraphModel>
  </diagram>
</mxfile>
